:SAMPLES-PER-SECOND 30
:FULLY-SPECIFIED
:DEGREES
217
root  -2.15098 39.5627 -0.85191 145.885 -78.1421 -154.032
RightUpLeg  1.70153 -1.34346 6.8793
RightLeg  16.7309 -16.5983 -3.35477
RightFoot  -9.2232 -0.0646431 0.115855
RightToes  -3.1126e-008 1.75238e-005 3.56266e-009
Spine  -6.07752 -2.72799 21.8014
Spine1  24.8683 -3.16331 -0.837175
HEad  18.4361 9.32753 14.8458
LeftShoulder1  2.99623 -8.05075 -19.4464
LeftArm  -36.4069 25.8301 -61.1423
LeftForeArm  103.604 -8.79576 0.164111
LeftHand  0.0664601 -8.53369 -0.214039
RightShoulder  0.322167 -0.00137827 0.890646
RightArm  5.70116 79.4903 65.4274
RightForeArm  23.5944 41.3947 8.32362
RightHand  -0.527645 3.76779 -6.97492
LeftUpLeg  -5.14466 12.2967 11.7941
LeftLeg  35.3997 8.43679 6.7368
LeftFoot  -9.40293 0.244007 -11.0732
LeftToes  4.78349e-008 1.46828e-008 1.33736e-009
218
root  -2.1766 39.5761 -0.851934 145.319 -78.8617 -153.588
RightUpLeg  1.9054 -1.59201 6.55616
RightLeg  16.7097 -16.9366 -3.46674
RightFoot  -9.28021 -0.0695356 0.367811
RightToes  -3.1126e-008 1.75238e-005 3.56266e-009
Spine  -6.00282 -2.56946 21.7514
Spine1  24.5904 -2.95926 -0.785005
HEad  19.0578 8.04292 15.1449
LeftShoulder1  2.83468 -7.75287 -18.6454
LeftArm  -33.8891 31.6202 -62.1194
LeftForeArm  103.003 -10.6394 -2.95395
LeftHand  0.125468 -9.41313 -0.583693
RightShoulder  0.210798 -1.05925 0.172065
RightArm  -1.7951 80.6984 57.4216
RightForeArm  21.9404 42.1542 8.68219
RightHand  -0.405796 3.5104 -5.54066
LeftUpLeg  -5.3798 11.839 11.4794
LeftLeg  35.7201 8.16205 6.60447
LeftFoot  -8.90748 0.293592 -11.2892
LeftToes  4.78349e-008 1.46828e-008 1.33736e-009
219
root  -2.188 39.5663 -0.851199 144.248 -79.3617 -152.606
RightUpLeg  1.96868 -1.51882 6.59943
RightLeg  16.885 -17.5017 -3.84617
RightFoot  -9.41838 -0.0700004 0.367917
RightToes  -3.1126e-008 1.75238e-005 3.56266e-009
Spine  -5.94849 -2.38371 21.0612
Spine1  24.4634 -3.18373 0.471755
HEad  20.0223 7.46846 14.5336
LeftShoulder1  2.71474 -7.41451 -18.292
LeftArm  -30.8281 36.8117 -63.4998
LeftForeArm  99.253 -13.2282 -5.26904
LeftHand  0.0763802 -8.36094 -0.264478
RightShoulder  0.138727 -1.68336 -0.930354
RightArm  -12.3038 80.8926 46.203
RightForeArm  20.0712 43.6074 9.30488
RightHand  0.0548041 2.06552 1.03858
LeftUpLeg  -5.56796 11.8008 11.5336
LeftLeg  36.0473 7.43607 6.12507
LeftFoot  -8.78359 0.309865 -11.4999
LeftToes  4.78349e-008 1.46828e-008 1.33736e-009
220
root  -2.18775 39.5507 -0.856574 142.503 -79.8997 -150.935
RightUpLeg  1.91096 -1.45998 6.66412
RightLeg  17.2725 -18.1271 -4.21394
RightFoot  -9.6043 -0.0727897 0.50956
RightToes  -3.1126e-008 1.75238e-005 3.56266e-009
Spine  -6.16218 -2.21045 20.6786
Spine1  24.6326 -3.29751 1.19099
HEad  20.9685 7.12507 13.9501
LeftShoulder1  2.44557 -6.84395 -16.9614
LeftArm  -26.4066 40.9517 -66.4976
LeftForeArm  95.1818 -16.928 -5.30135
LeftHand  -0.0111493 -8.56851 0.476998
RightShoulder  0.114387 -1.96272 -1.21014
RightArm  -23.4508 80.3925 33.4521
RightForeArm  17.5426 45.1377 10.0354
RightHand  0.443144 -0.573162 10.9595
LeftUpLeg  -5.80965 11.8496 11.6736
LeftLeg  36.3836 6.66631 5.5971
LeftFoot  -8.67139 0.319945 -11.4764
LeftToes  4.78349e-008 1.46828e-008 1.33736e-009
221
root  -2.17558 39.5205 -0.882289 139.138 -80.7739 -147.696
RightUpLeg  1.92775 -1.58708 6.70274
RightLeg  17.6568 -18.965 -4.56405
RightFoot  -9.82648 -0.0760587 0.714833
RightToes  -3.1126e-008 1.75238e-005 3.56266e-009
Spine  -6.58427 -2.17709 20.1477
Spine1  24.9685 -3.59647 2.05042
HEad  21.7977 6.61848 13.33
LeftShoulder1  2.25141 -6.50463 -15.7289
LeftArm  -23.1381 43.4953 -69.614
LeftForeArm  92.7354 -19.8026 -4.14714
LeftHand  -0.138301 -8.71208 1.52332
RightShoulder  0.0745652 -2.461 -1.53192
RightArm  -29.2515 79.6672 25.8281
RightForeArm  14.7895 46.0782 10.5946
RightHand  0.538082 -2.28988 20.3023
LeftUpLeg  -6.12814 12.0317 11.8849
LeftLeg  36.7584 5.55348 4.79022
LeftFoot  -8.64587 0.323294 -11.5112
LeftToes  4.78349e-008 1.46828e-008 1.33736e-009
222
root  -2.16434 39.4932 -0.904906 134.846 -81.529 -143.702
RightUpLeg  2.17768 -1.8305 6.71262
RightLeg  17.9503 -19.6894 -4.76714
RightFoot  -10.0451 -0.0769778 0.783949
RightToes  -3.1126e-008 1.75238e-005 3.56266e-009
Spine  -6.93507 -2.14189 19.5229
Spine1  25.6048 -3.92407 3.02822
HEad  22.4154 5.99229 12.7095
LeftShoulder1  2.21487 -6.50107 -15.3325
LeftArm  -19.7843 44.6227 -71.2811
LeftForeArm  89.424 -21.8271 -3.17731
LeftHand  -0.222238 -8.72619 2.21207
RightShoulder  0.0218293 -3.20187 -1.60304
RightArm  -31.9021 79.1485 21.6401
RightForeArm  12.8965 46.493 10.8996
RightHand  0.558665 -2.87739 26.6314
LeftUpLeg  -6.24839 11.9346 12.0729
LeftLeg  37.1147 4.77847 4.22438
LeftFoot  -8.51773 0.342941 -11.8226
LeftToes  4.78349e-008 1.46828e-008 1.33736e-009
223
root  -2.13368 39.4674 -0.92584 128.233 -82.4157 -137.405
RightUpLeg  2.48401 -2.17662 6.69757
RightLeg  18.1255 -20.6031 -4.87636
RightFoot  -10.1945 -0.0736143 0.812082
RightToes  -3.1126e-008 1.75238e-005 3.56266e-009
Spine  -7.25838 -2.24885 18.8959
Spine1  26.1972 -4.40163 3.99113
HEad  22.4443 5.64483 11.6531
LeftShoulder1  2.19422 -6.4365 -15.2619
LeftArm  -17.6441 44.2049 -71.8652
LeftForeArm  87.0747 -22.5579 -2.81459
LeftHand  -0.196515 -8.53843 2.01883
RightShoulder  0.00119258 -3.49542 -1.59321
RightArm  -34.2625 78.3434 19.1795
RightForeArm  11.9202 46.9715 11.1659
RightHand  0.472431 -3.44509 29.5755
LeftUpLeg  -6.47892 11.518 12.2049
LeftLeg  37.5094 4.05735 3.69061
LeftFoot  -8.44037 0.333709 -11.1554
LeftToes  4.78349e-008 1.46828e-008 1.33736e-009
224
root  -2.08448 39.4277 -0.933745 122.629 -82.9174 -132.032
RightUpLeg  2.53437 -2.42689 6.71957
RightLeg  18.5291 -21.1996 -5.05258
RightFoot  -10.3954 -0.0782962 0.946526
RightToes  -3.1126e-008 1.75238e-005 3.56266e-009
Spine  -7.02825 -2.17357 19.0582
Spine1  25.8617 -4.33105 4.25484
HEad  22.1202 5.31008 11.0184
LeftShoulder1  2.27839 -6.7132 -15.5111
LeftArm  -16.334 43.2197 -71.4732
LeftForeArm  83.475 -22.4549 -2.86952
LeftHand  -0.24508 -8.58996 2.41532
RightShoulder  0.0212558 -3.22522 -1.0722
RightArm  -35.8645 77.2962 18.0147
RightForeArm  12.2135 47.0068 11.1594
RightHand  0.417305 -3.55132 28.2643
LeftUpLeg  -6.69868 11.3787 12.3774
LeftLeg  37.8852 3.446 3.22917
LeftFoot  -8.54869 0.31028 -10.6077
LeftToes  4.78349e-008 1.46828e-008 1.33736e-009
225
root  -2.03909 39.3978 -0.933899 116.79 -83.1904 -126.39
RightUpLeg  2.6658 -2.5688 6.8503
RightLeg  18.6707 -21.8187 -5.13548
RightFoot  -10.466 -0.077979 0.922271
RightToes  -3.1126e-008 1.75238e-005 3.56266e-009
Spine  -6.74048 -2.20295 19.4597
Spine1  25.3618 -4.26857 4.15671
HEad  21.5863 4.98168 10.4092
LeftShoulder1  2.29515 -6.74276 -15.6181
LeftArm  -16.8304 41.8834 -71.4041
LeftForeArm  81.1053 -22.4401 -2.8153
LeftHand  -0.262294 -8.13335 2.63495
RightShoulder  0.0399003 -3.00683 -0.550808
RightArm  -36.5887 76.8104 18.5864
RightForeArm  13.2928 46.5565 10.8957
RightHand  0.487862 -2.96622 24.602
LeftUpLeg  -6.85424 11.1078 12.583
LeftLeg  38.1387 2.99748 2.87937
LeftFoot  -8.65916 0.297968 -10.3729
LeftToes  4.78349e-008 1.46828e-008 1.33736e-009
226
root  -2.00419 39.3743 -0.930808 108.626 -83.4719 -118.347
RightUpLeg  2.79564 -2.71305 7.00589
RightLeg  18.7155 -22.6588 -5.19309
RightFoot  -10.4894 -0.078745 1.034
RightToes  -3.1126e-008 1.75238e-005 3.56266e-009
Spine  -6.65761 -2.18878 19.9394
Spine1  24.8484 -4.20396 4.03852
HEad  21.3143 4.69681 9.86088
LeftShoulder1  2.3596 -6.88479 -15.9626
LeftArm  -18.0789 39.9335 -70.8505
LeftForeArm  79.8967 -22.0465 -2.9229
LeftHand  -0.408722 -7.26939 4.07394
RightShoulder  0.0659639 -2.71249 -0.132937
RightArm  -36.9296 75.9282 19.3159
RightForeArm  14.2302 46.0625 10.6307
RightHand  0.503726 -2.13356 18.7104
LeftUpLeg  -7.14871 10.5427 12.7298
LeftLeg  38.3989 2.64583 2.60573
LeftFoot  -8.7338 0.285356 -10.1904
LeftToes  4.78349e-008 1.46828e-008 1.33736e-009
227
root  -1.96661 39.3486 -0.919909 102.502 -83.6653 -112.318
RightUpLeg  2.77114 -2.87906 7.00324
RightLeg  18.9747 -23.1486 -5.32751
RightFoot  -10.6117 -0.0795266 1.19067
RightToes  -3.1126e-008 1.75238e-005 3.56266e-009
Spine  -6.58798 -2.21015 20.327
Spine1  24.3989 -4.12827 3.85214
HEad  21.1134 4.29592 9.72879
LeftShoulder1  2.37205 -6.8622 -16.147
LeftArm  -19.2631 37.9581 -70.5571
LeftForeArm  79.7237 -21.9446 -2.87002
LeftHand  -0.708475 -6.98199 7.01083
RightShoulder  0.0793195 -2.57302 0.07843
RightArm  -35.855 75.518 21.6387
RightForeArm  16.5662 45.293 10.1643
RightHand  0.498109 -0.698596 12.4674
LeftUpLeg  -7.38848 10.1563 12.7415
LeftLeg  38.6034 2.33323 2.35524
LeftFoot  -8.79033 0.277424 -10.0715
LeftToes  4.78349e-008 1.46828e-008 1.33736e-009
228
root  -1.91725 39.3279 -0.942672 96.9622 -83.6868 -106.508
RightUpLeg  2.34068 -2.75703 7.25737
RightLeg  19.2052 -23.8358 -5.55507
RightFoot  -10.6241 -0.0799316 1.26869
RightToes  -3.1126e-008 1.75238e-005 3.56266e-009
Spine  -6.72132 -2.13761 20.4259
Spine1  23.6558 -4.14312 4.02304
HEad  21.226 3.85668 9.46912
LeftShoulder1  2.39186 -6.92219 -16.2106
LeftArm  -18.7326 36.3856 -70.3676
LeftForeArm  77.7513 -22.5656 -2.55353
LeftHand  -0.797342 -5.7233 8.63554
RightShoulder  0.103099 -2.32342 0.317578
RightArm  -33.4733 75.1005 24.5806
RightForeArm  20.9577 44.3729 9.51303
RightHand  0.331701 0.649069 6.32677
LeftUpLeg  -8.01713 10.0124 12.8716
LeftLeg  38.7916 1.95846 2.04695
LeftFoot  -8.80009 0.27452 -9.98894
LeftToes  4.78349e-008 1.46828e-008 1.33736e-009
